<svg xmlns="http://www.w3.org/2000/svg" version="1.1" xmlns:xlink="http://www.w3.org/1999/xlink" xmlns:svgjs="http://svgjs.dev/svgjs" width="100%" height="100%" viewBox="0 0 1000 600"><rect width="1000" height="600" x="0" y="0" fill="#031d2e"/><g><circle r="166.66666666666666" cx="240.96184794108072" cy="263.18406413785925" fill="#ffffff" transform="matrix(1.6824776619530226,0,0,1.6824776619530226,0,-142.80133368949208)"/><path d="M242.72350029704467 188.18407214457602L242.72350029704467 188.18407214457602Q261.902420729991 188.18407214457602 275.81173363184024 196.02720893504608Q289.72104653368945 203.83970847242836 298.9734969661971 219.06642325705187L298.9734969661971 219.06642325705187L284.2063409778902 230.5247559118792Q276.0261944034546 216.4316194915033 265.7627146190505 210.57990415173856Q255.52987208773408 204.72818881197378 240.94653961795382 204.72818881197378L240.94653961795382 204.72818881197378Q229.27374619151203 204.72818881197378 221.6450701726564 208.03701214545336Q214.04703140688855 211.34583547893288 210.52374730179457 216.73799202238104Q207.00046319670065 222.16078581891696 207.00046319670065 228.9928932574905L207.00046319670065 228.9928932574905Q207.00046319670065 236.71348103560945 211.84114918456885 242.56519637537423Q216.6818351724371 248.416911715139 231.26516764221736 251.72573504861856L231.26516764221736 251.72573504861856L262.7909010695364 258.7723032588065Q283.7467821815736 263.3985284750603 292.0188405152725 272.77352791991905Q300.2908988489714 282.14852736477775 300.2908988489714 296.057840266627L300.2908988489714 296.057840266627Q300.2908988489714 308.4046532609998 293.33624239804675 317.9941134774729Q286.4122232002099 327.5835736939461 273.8203121811349 332.8838184781309Q261.25903841514776 338.18406326231576 244.25536295143337 338.18406326231576L244.25536295143337 338.18406326231576Q228.3852658519666 338.18406326231576 216.37546264155935 333.89484783002746Q204.33502217806432 329.5749951446514 195.72595406039994 322.313966162849Q187.1475231958233 315.02229992795884 181.63281764002406 305.98431026706567L181.63281764002406 305.98431026706567L197.07399319626197 293.3923992479907Q201.2406596161992 301.7870065940407 207.8583062831583 308.19019248938537Q214.4759529501174 314.59337838473004 223.8509523949761 318.116662489824Q233.22595183983486 321.639946594918 245.35830406259322 321.639946594918L245.35830406259322 321.639946594918Q256.6328131988939 321.639946594918 264.90487153259284 318.8825938170184Q273.1769298662917 316.12524103911875 277.5886943109311 310.7330844956706Q282.0004587555705 305.31029069913467 282.0004587555705 297.58970292101566L282.0004587555705 297.58970292101566Q282.0004587555705 290.54313471082776 277.34359628622894 284.9058801426774Q272.7173710699751 279.2992628276148 259.9416365323735 276.4193610373641L259.9416365323735 276.4193610373641L225.7504620864181 268.6987732592451Q212.2700707277977 265.60441069738 203.9980123940988 260.21225415393184Q195.72595406039994 254.7894603573959 192.11075819604264 247.40588236324248Q188.46492507859756 240.022304369089 188.46492507859756 231.41323625142462L188.46492507859756 231.41323625142462Q188.46492507859756 219.7404428249829 194.96002273320556 209.90588458380753Q201.48575764090137 200.10196359571995 213.71002162292308 194.12769924360413Q225.96492285803254 188.18407214457602 242.72350029704467 188.18407214457602Z " fill="#031d2e" transform="matrix(1.6824776619530226,0,0,1.6824776619530226,0,-142.80133368949208)"/><path d="M496.12354953797933 188.18407224030653L514.9357379381528 188.18407224030653L514.9357379381528 252.2077018534588L512.2305141516815 289.36566075958643L498.7976787981693 289.36566075958643L496.12354953797933 252.2077018534588L496.12354953797933 188.18407224030653ZM505.51409647492545 309.079590421917L505.51409647492545 309.079590421917Q512.0128524677126 309.079590421917 516.0551408842788 313.12187883848316Q520.0663347745638 317.13307272876807 520.0663347745638 323.6318287215552L520.0663347745638 323.6318287215552Q520.0663347745638 330.13058471434243 516.0551408842788 334.14177860462735Q512.0128524677126 338.1840670211936 505.51409647492545 338.1840670211936L505.51409647492545 338.1840670211936Q499.01534048213824 338.1840670211936 495.0041465918533 334.14177860462735Q490.96185817528715 330.13058471434243 490.96185817528715 323.6318287215552L490.96185817528715 323.6318287215552Q490.96185817528715 317.13307272876807 495.0041465918533 313.12187883848316Q499.01534048213824 309.079590421917 505.51409647492545 309.079590421917Z " fill="#ffffff" transform="matrix(1.6824776619530226,0,0,1.6824776619530226,0,-142.80133368949208)"/></g></svg>